<svg width="7985" height="1153" viewBox="0 0 7985 1153" fill="none" xmlns="http://www.w3.org/2000/svg">
<path d="M5793.64 951.46C5783.71 951.46 5774.78 951.46 5766.83 950.464C5749.96 949.479 5733.09 948.482 5716.22 948.482C5705.3 948.482 5705.3 948.482 5704.31 937.566L5688.42 756.912L5672.54 607.034L5661.63 514.725L5651.7 434.328L5633.83 309.26C5627.87 264.6 5620.93 220.925 5612 176.254C5611 169.312 5611 168.316 5618.95 167.32C5649.72 161.364 5681.48 158.386 5713.24 158.386H5724.16C5729.12 159.382 5732.09 162.36 5733.09 168.316L5737.06 236.801L5764.85 607.034L5778.75 776.762L5787.68 874.042L5793.64 951.46ZM4576.74 158.386H4594.6C4603.54 158.386 4605.52 161.364 4605.52 170.298L4613.47 290.406L4631.34 539.535L4642.25 669.563L4650.19 769.82L4666.08 942.526C4666.08 950.464 4665.08 951.46 4657.14 951.46L4585.67 948.482C4580.71 949.479 4577.73 946.5 4577.73 941.53L4574.75 906.79C4571.78 877.02 4568.8 847.239 4566.82 816.473L4550.93 659.643L4534.06 517.703L4522.14 417.456L4509.25 326.132C4503.29 285.436 4496.34 243.753 4489.4 203.057L4484.43 175.268C4483.44 170.298 4484.43 168.316 4489.4 167.32C4517.18 162.36 4543.99 157.4 4576.74 158.386ZM5575.27 558.399C5600.08 558.399 5603.06 559.395 5607.04 583.21C5612 612.99 5615.97 642.77 5618.95 672.541L5629.87 768.824L5650.71 973.293C5651.7 978.263 5650.71 980.245 5645.74 980.245L5568.32 989.179C5560.38 990.165 5558.39 989.179 5557.41 981.241L5512.74 752.948L5484.95 601.078L5480.97 580.232C5479.99 576.268 5481.97 573.29 5485.94 572.294C5516.71 565.352 5546.49 560.381 5575.27 558.399ZM4446.71 558.399C4473.51 557.403 4476.49 560.381 4479.47 585.202C4486.42 625.898 4491.38 665.599 4495.35 706.295L4508.25 825.397L4516.19 905.804L4523.14 970.315C4523.14 979.249 4522.14 981.241 4514.21 982.227L4440.76 989.179C4432.81 990.165 4430.83 989.179 4429.84 981.241L4369.29 669.563L4353.41 581.228C4352.42 576.268 4354.4 573.29 4359.37 572.294C4390.14 565.352 4418.92 560.381 4446.71 558.399ZM4825.87 866.093V993.143C4826.87 999.099 4823.89 1002.08 4817.94 1001.09H4794.11C4777.24 1001.09 4760.37 1002.08 4743.5 1003.07C4734.56 1004.07 4733.57 1004.07 4732.57 993.143L4716.69 814.481L4708.76 726.146L4696.84 591.158C4695.85 580.232 4697.84 578.25 4706.76 577.254C4734.56 574.275 4762.35 574.275 4790.15 575.272L4810.98 578.25C4818.93 581.228 4819.92 582.224 4819.92 590.162L4822.9 643.756L4823.89 703.317C4824.89 757.908 4825.87 811.503 4825.87 866.093ZM5952.45 872.049V994.139C5952.45 999.099 5950.47 1002.08 5945.5 1001.09H5909.77C5895.88 1001.09 5881.97 1002.08 5869.07 1003.07C5861.14 1004.07 5860.14 1003.07 5859.14 994.139L5838.31 761.872L5827.38 646.734L5823.42 588.18C5822.42 580.232 5824.4 578.25 5832.35 578.25C5865.1 574.275 5898.85 573.29 5931.6 577.254C5944.51 578.25 5946.49 582.224 5947.49 595.122L5950.47 727.131L5952.45 872.049ZM5546.49 346.979C5556.41 346.979 5565.34 347.975 5572.3 348.961C5577.26 349.957 5579.24 351.939 5580.23 356.909L5593.13 494.875C5596.11 506.787 5594.13 508.769 5582.22 508.769L5548.47 510.751C5541.52 511.747 5538.54 512.743 5538.54 501.827L5524.65 389.657L5520.68 357.895C5519.69 351.939 5521.67 348.961 5527.63 347.975L5546.49 346.979ZM4421.9 346.979C4429.84 346.979 4437.78 347.975 4444.73 348.961C4448.7 349.957 4450.68 351.939 4451.68 356.909L4455.64 391.649L4465.57 499.835C4466.57 507.773 4466.57 508.769 4458.62 508.769L4419.92 510.751C4411.98 511.747 4410.98 510.751 4409.99 502.813L4401.05 423.412L4393.11 356.909C4392.12 351.939 4394.11 348.961 4399.07 348.961C4406.02 347.975 4413.96 346.979 4421.9 346.979ZM4817.94 446.24V514.725C4818.93 525.641 4816.94 525.641 4808.01 525.641C4795.11 525.641 4783.2 524.655 4771.28 523.659C4763.35 522.663 4762.35 522.663 4763.35 514.725L4760.37 430.354C4760.37 411.5 4760.37 392.635 4759.37 373.781C4758.39 364.847 4759.37 363.851 4768.31 363.851C4782.2 363.851 4796.09 364.847 4810 366.829C4817.94 366.829 4817.94 368.821 4817.94 376.759V446.24ZM5945.5 447.226V515.721C5945.5 524.655 5944.51 525.641 5935.58 525.641L5897.86 523.659C5891.9 522.663 5888.92 519.685 5889.92 514.725L5886.94 372.785C5886.94 364.847 5887.93 363.851 5895.88 363.851C5908.77 363.851 5920.69 364.847 5932.6 365.843C5947.49 366.829 5945.5 369.807 5945.5 380.723V447.226ZM4391.13 500.831C4392.12 512.743 4391.13 514.725 4379.22 515.721L4355.39 521.677C4347.46 524.655 4346.46 522.663 4345.47 515.721L4320.65 375.763C4317.68 366.829 4319.66 364.847 4328.59 363.851L4363.33 357.895C4371.28 356.909 4373.26 356.909 4373.26 364.847C4376.24 381.719 4379.22 398.591 4381.2 415.463L4391.13 494.875V500.831ZM5447.23 364.847C5462.12 361.869 5477.99 359.887 5493.88 357.895C5498.84 356.909 5500.82 359.887 5501.82 364.847L5509.76 419.438C5513.73 446.24 5516.71 473.032 5517.71 499.835V507.773C5518.69 511.747 5516.71 514.725 5512.74 515.721L5480.97 522.663C5476.01 523.659 5474.03 521.677 5473.04 516.707L5447.23 368.821V364.847ZM4742.5 472.046C4742.5 487.922 4741.5 502.813 4740.52 516.707C4740.52 521.677 4738.53 523.659 4733.57 524.655L4702.8 527.633C4697.84 528.619 4695.85 525.641 4695.85 520.681C4693.87 505.791 4692.87 491.896 4691.88 477.006C4689.89 450.204 4687.91 422.416 4686.91 394.627L4684.93 374.777C4683.93 370.803 4685.93 368.821 4689.89 368.821L4730.59 365.843C4737.54 365.843 4739.52 366.829 4739.52 374.777L4742.5 472.046ZM5868.08 456.16C5869.07 475.024 5869.07 494.875 5868.08 513.729C5869.07 522.663 5867.09 524.655 5858.16 524.655L5830.36 527.633C5825.4 528.619 5822.42 525.641 5822.42 520.681C5821.43 495.871 5819.44 470.064 5817.46 445.244L5813.49 375.763C5812.49 370.803 5814.48 368.821 5818.45 368.821L5858.16 365.843C5865.1 365.843 5866.1 366.829 5866.1 374.777C5868.08 401.569 5869.07 429.368 5868.08 456.16ZM4352.42 794.63C4368.3 813.495 4371.28 834.331 4364.33 857.159C4358.37 879.002 4347.46 897.856 4331.57 913.742C4305.76 940.544 4275.99 962.377 4243.24 979.249C4186.66 1009.03 4128.1 1029.88 4065.56 1040.79C4020.9 1049.73 3976.23 1055.68 3931.57 1058.66C3917.67 1059.65 3903.78 1059.65 3889.87 1059.65H3860.1C3852.16 1059.65 3850.17 1057.66 3849.18 1049.73L3842.24 953.443L3823.37 763.864L3802.54 583.21L3790.62 486.936L3777.72 394.627C3770.77 344.001 3761.84 293.384 3752.9 242.757C3745.95 202.061 3739.01 161.364 3730.08 120.678C3729.08 115.708 3730.08 111.744 3735.04 110.748L3873 53.1788C3881.94 49.2047 3889.87 46.2267 3898.81 44.2446C3904.77 43.2487 3907.74 45.2407 3906.75 51.1968C3906.75 67.073 3906.75 82.9594 3905.76 99.8316L3904.77 112.729C3903.78 170.298 3903.78 227.867 3904.77 286.432C3905.76 337.059 3908.74 388.671 3911.72 439.288C3916.68 518.699 3924.62 598.1 3932.56 676.515C3932.56 684.453 3933.55 684.453 3942.48 683.467C3959.36 680.489 3975.24 679.493 3992.11 679.493C4044.72 679.493 4097.32 685.449 4147.95 698.347C4192.61 709.273 4235.3 724.164 4277.98 743.018C4298.82 752.948 4317.68 764.85 4335.54 778.754C4342.5 783.714 4347.46 788.674 4352.42 794.63ZM5471.05 785.696C5491.9 802.568 5498.84 825.397 5492.89 852.199C5487.93 874.042 5477.99 892.896 5463.1 909.768C5439.29 936.57 5411.49 957.417 5380.73 974.289C5321.18 1007.05 5257.65 1029.88 5190.15 1041.79C5153.43 1048.73 5116.7 1054.69 5079.97 1057.66C5059.13 1059.65 5036.3 1060.64 5013.47 1059.65H4986.67C4980.72 1060.64 4977.74 1057.66 4977.74 1051.71C4975.75 1023.92 4973.77 996.121 4970.79 968.333L4954.91 798.604L4938.03 650.708L4917.2 483.958C4914.22 455.174 4910.25 425.394 4905.29 396.609L4887.42 285.436C4879.48 232.837 4869.55 180.228 4858.63 127.62L4857.64 120.678C4855.66 115.708 4857.64 111.744 4862.6 110.748C4911.24 90.8973 4958.88 69.0551 5007.52 50.2008C5020.42 45.2407 5036.3 39.2847 5035.31 51.1968C5031.34 87.9193 5032.34 124.642 5031.34 160.378C5030.34 190.149 5030.34 219.929 5032.34 248.713V271.542C5032.34 307.278 5033.32 343.015 5036.3 377.745C5038.29 424.398 5041.27 472.046 5045.23 518.699L5054.17 618.946C5055.16 637.8 5057.15 655.669 5060.12 674.533C5060.12 685.449 5062.11 684.453 5071.04 683.467C5088.91 680.489 5106.78 679.493 5124.64 679.493C5187.17 680.489 5247.72 690.409 5307.27 707.281C5347.97 718.207 5386.68 733.088 5424.4 752.948C5441.27 761.872 5456.16 772.798 5471.05 785.696ZM4035.79 960.395C4050.68 951.46 4076.49 933.592 4112.21 905.804C4147.95 877.02 4169.78 858.155 4178.71 848.235C4125.12 824.411 4069.53 803.565 4011.96 784.71L4035.79 960.395ZM5303.31 853.195C5306.29 850.217 5305.29 848.235 5302.31 846.243L5278.49 836.323C5236.8 818.455 5195.11 802.568 5152.43 788.674L5146.48 786.692C5144.49 785.696 5142.51 786.692 5139.54 787.688L5163.35 959.399C5166.33 959.399 5168.32 958.403 5169.31 957.417C5208.02 929.618 5246.72 900.834 5285.44 870.067L5303.31 853.195Z" fill="#07A3D7"/>
<path d="M144.18 722.94C213.6 722.94 282.13 723.83 350.66 724.72C373.8 675.77 400.5 622.37 428.98 565.41C335.53 563.63 254.54 560.07 186.9 556.51C185.12 552.95 184.23 543.16 184.23 528.03C184.23 519.13 185.12 509.34 188.68 500.44C370.24 500.44 550.02 504.89 728.02 513.79V539.6C728.02 552.06 726.24 561.85 724.46 568.08C640.8 568.08 564.26 568.08 494.84 566.3C469.92 623.26 446.78 675.77 423.64 725.61C533.11 727.39 641.69 730.06 749.38 733.62V759.43C749.38 771.89 747.6 781.68 745.82 787.91C614.1 787.91 497.51 787.02 395.16 785.24C354.22 869.79 315.06 946.33 276.79 1013.97C256.32 1008.63 240.3 999.73 228.73 988.16C248.31 941.88 279.46 873.35 322.18 784.35C255.43 783.46 195.8 781.68 143.29 779.9C140.62 776.34 139.73 766.55 139.73 751.42C139.73 741.63 140.62 731.84 144.18 722.94ZM560.7 881.36C607.87 904.5 653.26 935.65 696.87 974.81C689.75 990.83 679.07 1005.07 665.72 1016.64C615.88 989.94 572.27 958.79 533.11 923.19C541.12 908.06 550.02 893.82 560.7 881.36ZM275.9 343.8C302.6 375.84 327.52 410.55 349.77 447.93C336.42 460.39 321.29 470.18 304.38 477.3C274.12 445.26 250.09 410.55 230.51 373.17C242.97 363.38 258.1 353.59 275.9 343.8ZM652.37 340.24C669.28 347.36 685.3 356.26 701.32 368.72C679.96 408.77 654.15 448.82 624.78 489.76C605.2 484.42 586.51 473.74 570.49 456.83C595.41 416.78 623 377.62 652.37 340.24ZM1057.32 450.6C1105.38 463.95 1150.77 482.64 1193.49 505.78C1188.15 521.8 1180.14 538.71 1167.68 554.73C1128.52 545.83 1084.02 529.81 1035.96 505.78C1040.41 486.2 1047.53 467.51 1057.32 450.6ZM1009.26 670.43C1055.54 673.99 1100.93 679.33 1143.65 686.45C1141.87 695.35 1140.98 705.14 1140.09 714.04C1138.31 727.39 1135.64 737.18 1133.86 744.3C1111.61 744.3 1090.25 742.52 1068.89 738.96C1046.64 736.29 1024.39 732.73 1003.03 728.28C1003.03 709.59 1004.81 690.01 1009.26 670.43ZM1186.37 865.34C1198.83 880.47 1205.06 897.38 1206.84 916.07C1171.24 940.99 1130.3 958.79 1082.24 970.36C1069.78 957.01 1060.88 940.1 1056.43 918.74C1093.81 896.49 1137.42 878.69 1186.37 865.34ZM1677.65 915.18C1678.54 922.3 1679.43 929.42 1679.43 938.32V961.46C1542.37 982.82 1407.98 994.39 1276.26 994.39C1272.7 978.37 1271.81 962.35 1271.81 946.33C1324.32 938.32 1377.72 931.2 1432.9 925.86C1426.67 882.25 1422.22 838.64 1418.66 795.92C1371.49 799.48 1325.21 800.37 1279.82 800.37C1277.15 784.35 1276.26 768.33 1276.26 751.42C1320.76 744.3 1366.15 738.96 1412.43 734.51C1408.87 700.69 1407.09 666.87 1405.31 633.05C1424.89 629.49 1444.47 627.71 1465.83 625.93C1470.28 661.53 1474.73 695.35 1479.18 729.17C1530.8 725.61 1583.31 723.83 1636.71 723.83C1637.6 730.06 1638.49 737.18 1638.49 746.08V769.22C1586.87 778.12 1535.25 785.24 1485.41 789.69C1489.86 834.19 1493.42 877.8 1496.98 920.52C1555.72 916.96 1616.24 915.18 1677.65 915.18ZM1262.91 511.12C1319.87 511.12 1376.83 512.9 1433.79 515.57C1423.11 481.75 1415.99 442.59 1414.21 399.87C1428.45 393.64 1446.25 389.19 1466.72 385.63C1482.74 416.78 1495.2 461.28 1502.32 519.13C1552.16 522.69 1602 526.25 1651.84 531.59V554.73C1651.84 567.19 1650.95 576.09 1650.06 581.43C1487.19 581.43 1357.25 576.09 1261.13 564.52C1259.35 560.96 1258.46 552.06 1258.46 537.82C1258.46 528.92 1259.35 520.02 1262.91 511.12ZM2248.14 332.23C2256.15 350.03 2260.6 369.61 2260.6 390.08C2143.12 417.67 2026.53 439.92 1909.05 457.72C1900.15 439.92 1894.81 421.23 1893.03 401.65C2002.5 374.95 2120.87 351.81 2248.14 332.23ZM2507.13 602.79C2508.91 609.91 2510.69 618.81 2510.69 629.49C2510.69 644.62 2509.8 654.41 2508.91 659.75C2466.19 663.31 2423.47 665.09 2380.75 666.87C2397.66 704.25 2417.24 745.19 2438.6 787.91C2462.63 771.89 2487.55 756.76 2513.36 742.52C2529.38 753.2 2539.17 765.66 2544.51 779.9C2518.7 804.82 2492.89 827.07 2467.97 847.54C2483.1 878.69 2499.12 909.84 2515.14 940.99C2527.6 932.98 2540.06 925.86 2552.52 920.52C2561.42 930.31 2568.54 942.77 2572.1 957.01C2552.52 975.7 2524.04 990.83 2486.66 1001.51C2465.3 974.81 2441.27 937.43 2415.46 888.48C2386.98 908.95 2359.39 927.64 2331.8 943.66C2317.56 932.98 2305.99 921.41 2297.98 908.06C2323.79 879.58 2352.27 852.88 2384.31 827.96C2362.06 782.57 2338.03 730.06 2313.11 669.54C2250.81 673.1 2189.4 674.88 2127.1 676.66C2133.33 715.82 2138.67 754.09 2144.01 793.25C2165.37 791.47 2185.84 788.8 2207.2 787.02C2208.98 806.6 2210.76 825.29 2210.76 842.2C2190.29 845.76 2170.71 849.32 2151.13 851.99C2156.47 903.61 2161.81 953.45 2165.37 1005.07C2134.22 1014.86 2094.17 1020.2 2044.33 1020.2C2038.99 1009.52 2035.43 996.17 2034.54 978.37C2057.68 973.92 2079.93 971.25 2102.18 970.36C2096.84 932.98 2091.5 895.6 2087.05 860C2027.42 868.01 1968.68 873.35 1909.94 876.91C1904.6 860.89 1902.82 842.2 1902.82 820.84C1961.56 813.72 2020.3 806.6 2078.15 800.37C2071.92 759.43 2065.69 718.49 2060.35 678.44C2014.07 680.22 1967.79 681.11 1921.51 681.11C1918.84 663.31 1917.95 644.62 1917.95 625.04C1960.67 623.26 2005.17 620.59 2051.45 618.81C2047.89 593.89 2044.33 568.08 2040.77 543.16C2062.13 537.82 2081.71 534.26 2099.51 534.26C2104.85 561.85 2111.08 589.44 2116.42 616.14C2171.6 614.36 2229.45 611.69 2288.19 609.91C2281.96 595.67 2275.73 579.65 2269.5 563.63C2285.52 556.51 2305.1 550.28 2327.35 544.94C2335.36 564.52 2344.26 585.88 2354.05 608.13C2403.89 606.35 2455.51 604.57 2507.13 602.79ZM2469.75 410.55C2511.58 428.35 2551.63 453.27 2589.01 483.53C2581 501.33 2570.32 515.57 2556.97 527.14C2514.25 507.56 2475.09 483.53 2441.27 455.05C2450.17 439.03 2459.07 423.9 2469.75 410.55ZM2872.03 530.7C2883.6 531.59 2895.17 532.48 2905.85 532.48C2921.87 496.88 2942.34 463.06 2969.04 429.24C2989.51 433.69 3007.31 440.81 3021.55 451.49C3009.98 479.97 2994.85 508.45 2977.05 536.93C3015.32 540.49 3051.81 544.05 3085.63 547.61C3085.63 720.27 3079.4 846.65 3067.83 928.53C3051.81 935.65 3009.98 938.32 2941.45 938.32C2880.93 938.32 2829.31 932.09 2787.48 918.74C2777.69 819.06 2771.46 700.69 2769.68 563.63C2789.26 561.85 2809.73 560.07 2829.31 560.07C2831.98 606.35 2834.65 652.63 2836.43 698.91C2847.11 698.91 2859.57 698.02 2873.81 698.02C2901.4 698.02 2923.65 698.91 2940.56 700.69C2942.34 709.59 2944.12 718.49 2944.12 728.28C2944.12 737.18 2943.23 745.19 2942.34 753.2C2926.32 756.76 2902.29 757.65 2870.25 757.65C2857.79 757.65 2847.11 757.65 2839.1 756.76C2840.88 795.03 2841.77 833.3 2843.55 870.68C2905.85 876.02 2963.7 877.8 3016.21 877.8C3016.21 807.49 3017.99 715.82 3022.44 601.9C2966.37 598.34 2915.64 592.11 2870.25 582.32C2870.25 564.52 2870.25 546.72 2872.03 530.7ZM3256.51 445.26C3272.53 451.49 3287.66 460.39 3302.79 471.07C3286.77 508.45 3269.86 544.05 3252.06 579.65C3319.7 584.99 3387.34 590.33 3456.76 597.45C3456.76 706.03 3453.2 808.38 3446.08 902.72C3431.84 906.28 3415.82 908.06 3396.24 908.06C3376.66 908.06 3359.75 907.17 3346.4 904.5C3344.62 888.48 3344.62 873.35 3344.62 860.89C3362.42 860 3379.33 859.11 3395.35 859.11C3396.24 795.03 3398.02 723.83 3400.69 647.29C3338.39 643.73 3280.54 638.39 3225.36 633.05C3208.45 665.98 3191.54 698.91 3173.74 730.95C3154.16 726.5 3137.25 715.82 3122.12 699.8C3163.06 612.58 3208.45 527.14 3256.51 445.26ZM3172.85 782.57C3204.89 797.7 3238.71 817.28 3276.09 842.2C3269.86 857.33 3260.96 873.35 3249.39 889.37C3212.01 875.13 3176.41 855.55 3143.48 829.74C3154.16 811.94 3163.95 796.81 3172.85 782.57Z" fill="#07A3D7"/>
<path d="M6653.56 495.16C6665.13 495.16 6675.81 497.83 6686.49 502.28C6687.38 561.91 6688.27 619.76 6689.16 676.72C6749.68 678.5 6811.98 681.17 6877.84 683.84C6877.84 702.53 6876.06 722.11 6872.5 742.58C6810.2 742.58 6748.79 741.69 6690.05 739.91V776.4C6690.05 820.9 6688.27 862.73 6684.71 901.89C6742.56 900.11 6802.19 899.22 6862.71 899.22C6863.6 905.45 6864.49 913.46 6864.49 924.14V951.73C6722.09 965.97 6580.58 973.09 6441.74 973.09C6438.18 954.4 6436.4 935.71 6436.4 916.13C6495.14 910.79 6554.77 907.23 6617.07 904.56C6614.4 864.51 6613.51 823.57 6613.51 782.63V738.13C6536.97 735.46 6461.32 731.9 6386.56 726.56V695.41C6386.56 686.51 6386.56 678.5 6388.34 670.49C6457.76 670.49 6533.41 672.27 6615.29 674.05C6616.18 617.09 6618.85 559.24 6622.41 502.28C6633.09 497.83 6642.88 495.16 6653.56 495.16ZM6369.65 375.9C6449.75 375.9 6528.96 377.68 6609.06 379.46C6589.48 354.54 6573.46 328.73 6559.22 301.14C6573.46 289.57 6589.48 278.89 6609.06 269.1C6639.32 304.7 6666.91 342.08 6690.94 382.13C6779.05 385.69 6866.27 389.25 6952.6 394.59V421.29C6952.6 435.53 6950.82 445.32 6949.04 452.44C6706.07 452.44 6512.05 447.1 6367.87 436.42C6365.2 431.97 6364.31 422.18 6364.31 406.16C6364.31 396.37 6366.09 386.58 6369.65 375.9ZM7280.12 292.24C7456.34 295.8 7631.67 307.37 7806.11 325.17C7806.11 344.75 7803.44 364.33 7799.88 382.13C7718 382.13 7637.01 380.35 7556.91 375.9C7542.67 415.95 7530.21 444.43 7519.53 461.34C7496.39 461.34 7476.81 456.89 7462.57 447.99C7469.69 421.29 7477.7 395.48 7488.38 371.45C7415.4 367 7344.2 360.77 7273.89 352.76C7273.89 332.29 7275.67 311.82 7280.12 292.24ZM7307.71 493.38C7326.4 493.38 7345.98 495.16 7366.45 496.94C7366.45 594.84 7359.33 688.29 7345.98 776.4C7327.29 776.4 7307.71 775.51 7288.13 771.95C7288.13 682.06 7294.36 589.5 7307.71 493.38ZM7440.32 480.92C7551.57 482.7 7667.27 488.04 7787.42 497.83C7787.42 599.29 7784.75 689.18 7779.41 767.5C7769.62 771.06 7758.94 771.95 7746.48 771.95C7732.24 771.95 7721.56 769.28 7713.55 763.94V559.24C7620.99 557.46 7529.32 550.34 7440.32 539.66C7437.65 532.54 7436.76 522.75 7436.76 509.4C7436.76 499.61 7437.65 489.82 7440.32 480.92ZM7532.88 603.74C7556.91 608.19 7577.38 615.31 7595.18 625.99C7567.59 686.51 7537.33 747.03 7505.29 805.77C7592.51 834.25 7674.39 870.74 7752.71 917.02C7747.37 932.15 7739.36 948.17 7727.79 965.97C7651.25 945.5 7565.81 911.68 7472.36 863.62C7449.22 902.78 7425.19 942.83 7400.27 982.88C7378.02 979.32 7358.44 970.42 7342.42 957.07C7401.16 833.36 7464.35 715.88 7532.88 603.74Z" fill="#07A3D7"/>
</svg>
