<?xml version="1.0" encoding="UTF-8"?>
<!-- Generated by Pixelmator Pro 3.3.6 -->
<svg width="8000" height="1153" viewBox="0 0 8000 1153" xmlns="http://www.w3.org/2000/svg">
    <g id="g1">
        <path id="path1" fill="#07a3d7" stroke="none" d="M 5796.637207 951.460449 C 5786.707031 951.460449 5777.783203 951.460449 5769.834961 950.464417 C 5752.962891 949.478516 5736.09082 948.482483 5719.218262 948.482483 C 5708.302246 948.482483 5708.302246 948.482483 5707.306152 937.566345 L 5691.419922 756.911865 L 5675.543945 607.033997 L 5664.627441 514.724792 L 5654.697754 434.327759 L 5636.829102 309.260071 C 5630.873535 264.599548 5623.931152 220.925049 5614.99707 176.254333 C 5614.000977 169.312378 5614.000977 168.316284 5621.949219 167.320251 C 5652.71582 161.364136 5684.477539 158.386108 5716.240234 158.386108 L 5727.15625 158.386108 C 5732.116699 159.382202 5735.094727 162.360229 5736.09082 168.316284 L 5740.064453 236.801086 L 5767.853027 607.033997 L 5781.74707 776.762146 L 5790.681641 874.041504 Z M 4579.73584 158.386108 L 4597.604004 158.386108 C 4606.538086 158.386108 4608.52002 161.364136 4608.52002 170.298279 L 4616.468262 290.405884 L 4634.336426 539.535034 L 4645.252441 669.562744 L 4653.190918 769.820129 L 4669.077148 942.526367 C 4669.077148 950.464417 4668.080566 951.460449 4660.142578 951.460449 L 4588.669434 948.482483 C 4583.709473 949.478516 4580.731445 946.500427 4580.731445 941.530273 L 4577.753906 906.789795 C 4574.775879 877.019531 4571.797852 847.239136 4569.815918 816.472778 L 4553.929688 659.6427 L 4537.057129 517.70282 L 4525.14502 417.455505 L 4512.24707 326.132263 C 4506.290527 285.43573 4499.338379 243.753296 4492.396484 203.056763 L 4487.42627 175.268433 C 4486.44043 170.298279 4487.42627 168.316284 4492.396484 167.320251 C 4520.185059 162.360229 4546.987305 157.400146 4579.73584 158.386108 Z M 5578.274414 558.399353 C 5603.084961 558.399353 5606.062988 559.395447 5610.037109 583.209656 C 5614.99707 612.98999 5618.971191 642.770447 5621.949219 672.540771 L 5632.865234 768.824097 L 5653.711426 973.292664 C 5654.697754 978.262939 5653.711426 980.244873 5648.741211 980.244873 L 5571.322754 989.178894 C 5563.384277 990.164917 5561.39209 989.178894 5560.40625 981.240906 L 5515.73584 752.947937 L 5487.947754 601.077881 L 5483.973145 580.231567 C 5482.987793 576.267639 5484.969727 573.289612 5488.943359 572.293518 C 5519.709961 565.351501 5549.490234 560.381348 5578.274414 558.399353 Z M 4449.70752 558.399353 C 4476.510254 557.40332 4479.488281 560.381348 4482.466309 585.201721 C 4489.418457 625.898315 4494.378418 665.598755 4498.352539 706.295288 L 4511.250977 825.396729 L 4519.188965 905.803955 L 4526.140625 970.314575 C 4526.140625 979.248779 4525.14502 981.240906 4517.207031 982.226868 L 4443.762207 989.178894 C 4435.813965 990.164917 4433.832031 989.178894 4432.835938 981.240906 L 4372.289063 669.562744 L 4356.412598 581.227661 C 4355.416992 576.267639 4357.398926 573.289612 4362.368652 572.293518 C 4393.135254 565.351501 4421.919434 560.381348 4449.70752 558.399353 Z M 4828.874512 866.093262 L 4828.874512 993.142944 C 4829.870605 999.098999 4826.892578 1002.077026 4820.937012 1001.091187 L 4797.112793 1001.091187 C 4780.240234 1001.091187 4763.368164 1002.077026 4746.495605 1003.07312 C 4737.562012 1004.069214 4736.565918 1004.069214 4735.569336 993.142944 L 4719.693359 814.480652 L 4711.755371 726.14563 L 4699.843262 591.157837 C 4698.847168 580.231567 4700.839355 578.249634 4709.763184 577.25354 C 4737.562012 574.275452 4765.350098 574.275452 4793.148926 575.271545 L 4813.984375 578.249634 C 4821.932617 581.227661 4822.918945 582.223633 4822.918945 590.161743 L 4825.896973 643.756409 L 4826.892578 703.317261 C 4827.888672 757.907959 4828.874512 811.502563 4828.874512 866.093262 Z M 5955.449707 872.049438 L 5955.449707 994.138916 C 5955.449707 999.098999 5953.467285 1002.077026 5948.49707 1001.091187 L 5912.770996 1001.091187 C 5898.876465 1001.091187 5884.972656 1002.077026 5872.074707 1003.07312 C 5864.13623 1004.069214 5863.140137 1003.07312 5862.144043 994.138916 L 5841.308105 761.871948 L 5830.381836 646.734375 L 5826.41748 588.17981 C 5825.421387 580.231567 5827.40332 578.249634 5835.352051 578.249634 C 5868.100098 574.275452 5901.854492 573.289612 5934.603516 577.25354 C 5947.51123 578.249634 5949.493164 582.223633 5950.489746 595.121765 L 5953.467285 727.13147 Z M 5549.490234 346.978577 C 5559.410156 346.978577 5568.344727 347.97467 5575.296387 348.960571 C 5580.256348 349.956665 5582.238281 351.938599 5583.234375 356.908813 L 5596.132813 494.874512 C 5599.11084 506.786682 5597.128906 508.768677 5585.216309 508.768677 L 5551.472168 510.750671 C 5544.52002 511.746704 5541.541992 512.742798 5541.541992 501.82666 L 5527.647949 389.657043 L 5523.684082 357.894653 C 5522.6875 351.938599 5524.669922 348.960571 5530.625977 347.97467 Z M 4424.897461 346.978577 C 4432.835938 346.978577 4440.783691 347.97467 4447.725586 348.960571 C 4451.700195 349.956665 4453.682129 351.938599 4454.678223 356.908813 L 4458.64209 391.649231 L 4468.572266 499.834534 C 4469.568359 507.772644 4469.568359 508.768677 4461.620117 508.768677 L 4422.915527 510.750671 C 4414.977539 511.746704 4413.981445 510.750671 4412.98584 502.812561 L 4404.05127 423.411682 L 4396.113281 356.908813 C 4395.117188 351.938599 4397.109375 348.960571 4402.069336 348.960571 C 4409.021484 347.97467 4416.959473 346.978577 4424.897461 346.978577 Z M 4820.937012 446.239929 L 4820.937012 514.724792 C 4821.932617 525.640869 4819.940918 525.640869 4811.006348 525.640869 C 4798.108398 525.640869 4786.196289 524.654968 4774.28418 523.658875 C 4766.346191 522.662842 4765.350098 522.662842 4766.346191 514.724792 L 4763.368164 430.353638 C 4763.368164 411.499512 4763.368164 392.635193 4762.37207 373.781006 C 4761.38623 364.846863 4762.37207 363.850769 4771.306152 363.850769 C 4785.200195 363.850769 4799.094727 364.846863 4812.999023 366.828857 C 4820.937012 366.828857 4820.937012 368.820984 4820.937012 376.759033 Z M 5948.49707 447.22583 L 5948.49707 515.720825 C 5948.49707 524.654968 5947.51123 525.640869 5938.577148 525.640869 L 5900.858398 523.658875 C 5894.902832 522.662842 5891.924805 519.684814 5892.920898 514.724792 L 5889.942871 372.784912 C 5889.942871 364.846863 5890.928223 363.850769 5898.876465 363.850769 C 5911.774902 363.850769 5923.687012 364.846863 5935.599609 365.842896 C 5950.489746 366.828857 5948.49707 369.806824 5948.49707 380.722961 Z M 4394.131348 500.830627 C 4395.117188 512.742798 4394.131348 514.724792 4382.21875 515.720825 L 4358.394531 521.676941 C 4350.457031 524.654968 4349.460938 522.662842 4348.474609 515.720825 L 4323.654297 375.762939 C 4320.67627 366.828857 4322.658203 364.846863 4331.592773 363.850769 L 4366.33252 357.894653 C 4374.28125 356.908813 4376.263184 356.908813 4376.263184 364.846863 C 4379.241211 381.718994 4382.21875 398.591187 4384.201172 415.463379 L 4394.131348 494.874512 Z M 5450.229004 364.846863 C 5465.119141 361.868835 5480.995117 359.886841 5496.881348 357.894653 C 5501.841309 356.908813 5503.823242 359.886841 5504.819336 364.846863 L 5512.757813 419.437561 C 5516.731934 446.239929 5519.709961 473.032166 5520.705566 499.834534 L 5520.705566 507.772644 C 5521.691895 511.746704 5519.709961 514.724792 5515.73584 515.720825 L 5483.973145 522.662842 C 5479.013184 523.658875 5477.03125 521.676941 5476.035156 516.706726 L 5450.229004 368.820984 Z M 4745.499512 472.046265 C 4745.499512 487.922363 4744.503906 502.812561 4743.517578 516.706726 C 4743.517578 521.676941 4741.525879 523.658875 4736.565918 524.654968 L 4705.799316 527.632996 C 4700.839355 528.618896 4698.847168 525.640869 4698.847168 520.680847 C 4696.865234 505.790649 4695.869141 491.896484 4694.883301 477.006287 C 4692.891113 450.203857 4690.90918 422.415527 4689.913086 394.627319 L 4687.930664 374.777039 C 4686.935059 370.802917 4688.927246 368.820984 4692.891113 368.820984 L 4733.587891 365.842896 C 4740.539551 365.842896 4742.521973 366.828857 4742.521973 374.777039 Z M 5871.078125 456.159973 C 5872.074707 475.024292 5872.074707 494.874512 5871.078125 513.728699 C 5872.074707 522.662842 5870.092285 524.654968 5861.158203 524.654968 L 5833.359863 527.632996 C 5828.399902 528.618896 5825.421387 525.640869 5825.421387 520.680847 C 5824.425781 495.870605 5822.443848 470.06427 5820.461914 445.243835 L 5816.487793 375.762939 C 5815.491699 370.802917 5817.483887 368.820984 5821.447754 368.820984 L 5861.158203 365.842896 C 5868.100098 365.842896 5869.096191 366.828857 5869.096191 374.777039 C 5871.078125 401.569275 5872.074707 429.367676 5871.078125 456.159973 Z M 4355.416992 794.630371 C 4371.303223 813.494751 4374.28125 834.330872 4367.329102 857.159119 C 4361.372559 879.001587 4350.457031 897.855713 4334.570313 913.742004 C 4308.76416 940.544434 4278.993652 962.376587 4246.235352 979.248779 C 4189.662598 1009.029175 4131.098145 1029.875488 4068.558838 1040.791748 C 4023.898438 1049.725708 3979.228027 1055.681885 3934.567383 1058.65979 C 3920.673096 1059.645752 3906.779053 1059.645752 3892.874756 1059.645752 L 3863.104492 1059.645752 C 3855.15625 1059.645752 3853.174316 1057.663818 3852.178223 1049.725708 L 3845.236328 953.442505 L 3826.37207 763.864014 L 3805.535645 583.209656 L 3793.623535 486.936462 L 3780.715332 394.627319 C 3773.773193 344.000549 3764.839111 293.383972 3755.905029 242.757202 C 3748.952881 202.060669 3742.010986 161.364136 3733.076904 120.677734 C 3732.080811 115.70752 3733.076904 111.743652 3738.036621 110.747559 L 3876.002686 53.178833 C 3884.936768 49.204712 3892.874756 46.226685 3901.808838 44.244629 C 3907.765137 43.248657 3910.74292 45.240723 3909.74707 51.196777 C 3909.74707 67.072998 3909.74707 82.959351 3908.760986 99.831543 L 3907.765137 112.729492 C 3906.779053 170.298279 3906.779053 227.867004 3907.765137 286.431824 C 3908.760986 337.058533 3911.739014 388.671143 3914.717285 439.287781 C 3919.677002 518.698853 3927.615234 598.099792 3935.563477 676.514893 C 3935.563477 684.452881 3936.549316 684.452881 3945.483643 683.467041 C 3962.355713 680.488953 3978.241943 679.49292 3995.114258 679.49292 C 4047.7229 679.49292 4100.321289 685.448975 4150.948242 698.347046 C 4195.608398 709.273315 4238.297363 724.163574 4280.975586 743.0177 C 4301.821777 752.947937 4320.67627 764.849915 4338.544434 778.754333 C 4345.49707 783.714355 4350.457031 788.674255 4355.416992 794.630371 Z M 5474.053223 785.696289 C 5494.899414 802.568481 5501.841309 825.396729 5495.885254 852.199097 C 5490.925293 874.041504 5480.995117 892.895691 5466.10498 909.767822 C 5442.291016 936.570251 5414.492676 957.416565 5383.726074 974.288757 C 5324.175293 1007.047302 5260.650879 1029.875488 5193.151367 1041.787598 C 5156.429199 1048.729736 5119.696289 1054.685791 5082.974121 1057.663818 C 5062.12793 1059.645752 5039.299316 1060.641846 5016.471191 1059.645752 L 4989.668945 1059.645752 C 4983.723145 1060.641846 4980.745117 1057.663818 4980.745117 1051.707642 C 4978.75293 1023.919373 4976.770996 996.120972 4973.79248 968.332642 L 4957.90625 798.604492 L 4941.034668 650.708496 L 4920.198242 483.958435 C 4917.220215 455.174072 4913.245605 425.393616 4908.285645 396.609253 L 4890.41748 285.43573 C 4882.479492 232.837158 4872.549316 180.228455 4861.633301 127.619751 L 4860.637207 120.677734 C 4858.655273 115.70752 4860.637207 111.743652 4865.597168 110.747559 C 4914.242188 90.897339 4961.880859 69.055054 5010.515137 50.200806 C 5023.42334 45.240723 5039.299316 39.284668 5038.313965 51.196777 C 5034.339355 87.919312 5035.335938 124.641724 5034.339355 160.378235 C 5033.343262 190.148499 5033.343262 219.928894 5035.335938 248.713318 L 5035.335938 271.541565 C 5035.335938 307.278076 5036.321289 343.014648 5039.299316 377.744873 C 5041.291504 424.397583 5044.269531 472.046265 5048.233887 518.698853 L 5057.16748 618.946106 C 5058.164063 637.800293 5060.145996 655.668579 5063.124023 674.532837 C 5063.124023 685.448975 5065.105957 684.452881 5074.040039 683.467041 C 5091.908203 680.488953 5109.776367 679.49292 5127.64502 679.49292 C 5190.173828 680.488953 5250.720215 690.408997 5310.270996 707.28125 C 5350.967773 718.207458 5389.682129 733.087524 5427.400879 752.947937 C 5444.272949 761.871948 5459.163086 772.798096 5474.053223 785.696289 Z M 4038.788818 960.394531 C 4053.678955 951.460449 4079.485352 933.592163 4115.211914 905.803955 C 4150.948242 877.019531 4172.780273 858.155273 4181.714355 848.235229 C 4128.119629 824.410828 4072.533203 803.564575 4014.964355 784.710327 Z M 5306.307129 853.19519 C 5309.285156 850.217163 5308.289063 848.235229 5305.311035 846.243042 L 5281.486328 836.322998 C 5239.804199 818.454712 5198.111328 802.568481 5155.433105 788.674255 L 5149.477051 786.692322 C 5147.495117 785.696289 5145.513184 786.692322 5142.535156 787.688354 L 5166.349121 959.39856 C 5169.327148 959.39856 5171.319336 958.402527 5172.305176 957.416565 C 5211.019531 929.618164 5249.724609 900.83374 5288.438965 870.067383 Z"/>
        <g id="g2">
            <text id="text1" xml:space="preserve" x="3" y="896" font-family="Wawati SC" font-size="890" fill="#07a3d7">关注我的</text>
            <text id="text2" xml:space="preserve" x="6208" y="848" font-family="Wawati SC" font-size="890" fill="#07a3d7">主页</text>
        </g>
    </g>
</svg>
